<svg width="320" height="320" viewBox="0 0 320 320" fill="none" xmlns="http://www.w3.org/2000/svg">
  <rect width="320" height="320" fill="#050505"/>
  <rect x="1" y="1" width="318" height="318" stroke="#2A2A2A" stroke-width="2"/>
  <g opacity="0.92">
    <rect x="58" y="205" width="8" height="48" fill="#F2F0EA"/>
    <rect x="74" y="169" width="8" height="84" fill="#F2F0EA"/>
    <rect x="90" y="118" width="8" height="135" fill="#F2F0EA"/>
    <rect x="106" y="144" width="8" height="109" fill="#F2F0EA"/>
    <rect x="122" y="91" width="8" height="162" fill="#F2F0EA"/>
    <rect x="138" y="131" width="8" height="122" fill="#F2F0EA"/>
    <rect x="154" y="59" width="8" height="194" fill="#B8FF2C"/>
    <rect x="170" y="83" width="8" height="170" fill="#B8FF2C"/>
    <rect x="186" y="137" width="8" height="116" fill="#F2F0EA"/>
    <rect x="202" y="105" width="8" height="148" fill="#F2F0EA"/>
    <rect x="218" y="158" width="8" height="95" fill="#F2F0EA"/>
    <rect x="234" y="189" width="8" height="64" fill="#F2F0EA"/>
    <rect x="250" y="213" width="8" height="40" fill="#F2F0EA"/>
  </g>
  <path d="M58 67H156C198 67 228 95 228 135C228 175 198 203 156 203H111V253H58V67ZM111 111V159H151C166 159 175 149 175 135C175 121 166 111 151 111H111Z" fill="#181818"/>
  <path d="M58 67H156C198 67 228 95 228 135C228 175 198 203 156 203H111V253H58V67ZM111 111V159H151C166 159 175 149 175 135C175 121 166 111 151 111H111Z" stroke="#3A3A3A" stroke-width="2"/>
</svg>
